<?xml version="1.0" encoding="UTF-8" standalone="no"?>
<!-- Generator: Adobe Illustrator 19.0.1, SVG Export Plug-In . SVG Version: 6.00 Build 0)  -->

<svg
   xmlns:dc="http://purl.org/dc/elements/1.1/"
   xmlns:cc="http://creativecommons.org/ns#"
   xmlns:rdf="http://www.w3.org/1999/02/22-rdf-syntax-ns#"
   xmlns:svg="http://www.w3.org/2000/svg"
   xmlns="http://www.w3.org/2000/svg"
   xmlns:sodipodi="http://sodipodi.sourceforge.net/DTD/sodipodi-0.dtd"
   xmlns:inkscape="http://www.inkscape.org/namespaces/inkscape"
   version="1.1"
   x="0px"
   y="0px"
   viewBox="0 0 270 270"
   xml:space="preserve"
   id="svg2985"
   inkscape:version="0.48.4 r9939"
   width="100%"
   height="100%"
   sodipodi:docname="rays.svg"><metadata
     id="metadata3046"><rdf:RDF><cc:Work
         rdf:about=""><dc:format>image/svg+xml</dc:format><dc:type
           rdf:resource="http://purl.org/dc/dcmitype/StillImage" /><dc:title /></cc:Work></rdf:RDF></metadata><defs
     id="defs3044" /><sodipodi:namedview
     pagecolor="#ffffff"
     bordercolor="#666666"
     borderopacity="1"
     objecttolerance="10"
     gridtolerance="10"
     guidetolerance="10"
     inkscape:pageopacity="0"
     inkscape:pageshadow="2"
     inkscape:window-width="2460"
     inkscape:window-height="1310"
     id="namedview3042"
     showgrid="false"
     showguides="false"
     inkscape:snap-global="false"
     fit-margin-top="0"
     fit-margin-left="0"
     fit-margin-right="0"
     fit-margin-bottom="0"
     inkscape:zoom="3.175"
     inkscape:cx="275.59175"
     inkscape:cy="102.79213"
     inkscape:window-x="50"
     inkscape:window-y="80"
     inkscape:window-maximized="0"
     inkscape:current-layer="g3841"
     units="in"><inkscape:grid
       type="xygrid"
       id="grid3868"
       empspacing="5"
       visible="true"
       enabled="true"
       snapvisiblegridlinesonly="true"
       originx="-55.09375px"
       originy="-787.375px" /></sodipodi:namedview><style
     type="text/css"
     id="style2987">
	.st0{fill:#999999;}
	.st1{fill:#CCCCCC;}
	.st2{fill:#5D5E5E;}
	.st3{fill:#333333;}
	.st4{fill:#EE1D3A;}
	.st5{fill:#FFFFFF;}
	.st6{fill:#666766;}
	.st7{fill:none;}
	.st8{fill:#FFFFFF;stroke:#000000;stroke-miterlimit:10;}
	.st9{fill:#33C6F4;}
	.st10{fill:#0099CC;}
	.st11{fill:#47C8F5;}
	.st12{fill:#F7903E;}
	.st13{fill:#B14C26;}
	.st14{fill:#9DCDA3;}
	.st15{fill:#739560;}
	.st16{fill:#A2C5C9;}
	.st17{fill:#62778A;}
	.st18{fill:#D9C480;}
	.st19{fill:#98754B;}
	.st20{fill:#AC5E47;}
	.st21{fill:#7C2A38;}
	.st22{fill:#58612B;}
	.st23{fill:#273E20;}
	.st24{fill:#489A8C;}
	.st25{fill:#237784;}
	.st26{fill:#D5B2AC;}
	.st27{fill:#936776;}
	.st28{fill:#F9F9FA;}
	.st29{fill:none;stroke:#FFFFFF;stroke-width:4;stroke-miterlimit:10;}
	.st30{display:none;}
	.st31{display:inline;}
</style><g
     id="Layer_1"
     transform="translate(-55.09375,-382.625)" /><g
     id="g3841"
     transform="translate(-110.38434,-447.923)"><path
       style="fill:#000000"
       d="m 205.08486,553.81328 -3.99808,59.99595 26.33549,25.98544 c 3.04233,0.92592 99.69494,95.11125 187.42636,180.06642 l 141.38017,0 C 464.11643,723.92131 305.72276,566.86588 302.28892,563.39216 l -9.51677,-9.57888 -5.38176,8.37372 -3.98956,8.78931 -17.08032,-17.16303 6.31681,17.41237 -17.35045,-17.41237 -0.14545,21.60962 -21.5478,-21.60962 -0.0623,28.38342 z"
       id="path2995"
       inkscape:connector-curvature="0"
       sodipodi:nodetypes="cccccccccccccccc" /><g
       id="g2997"
       transform="matrix(0.66492725,0,0,0.66491178,-180.84927,342.50535)"><path
         class="st5"
         d="m 574.4,408.1 v -90.2 h 5.9 v 84.8 h 28.4 v 5.4 h -34.3 z"
         id="path2999"
         inkscape:connector-curvature="0"
         style="fill:#ffffff" /><path
         class="st5"
         d="m 623.2,386.3 c 0,9.7 3.6,17.1 13.5,17.1 9.9,0 13.5,-7.5 13.5,-17.1 v -68.4 h 5.5 V 386 c 0,12.9 -5.4,22.8 -19.2,22.8 -13.8,0 -19.3,-9.9 -19.3,-22.8 v -68.2 h 5.9 v 68.5 z"
         id="path3001"
         inkscape:connector-curvature="0"
         style="fill:#ffffff" /><path
         class="st5"
         d="m 688.9,366 -18.3,42 h -5.8 l 20.4,-46.8 -18.9,-43.4 h 6.2 l 17,38.8 17.1,-38.8 h 5.7 l -18.9,43.4 20.2,46.8 h -6.3 l -18.4,-42 z"
         id="path3003"
         inkscape:connector-curvature="0"
         style="fill:#ffffff" /></g><path
       style="fill:#ffffff"
       d="m 275.08924,681.35167 -5.71422,6.23355 132.3413,132.27587 11.96869,0 -138.59577,-138.50942 z"
       id="polygon3007"
       inkscape:connector-curvature="0" /><path
       style="fill:#ffffff"
       d="m 348.77149,607.54645 -4.71683,5.17385 207.00016,207.14079 10.05706,0 -212.34039,-212.31464 z"
       id="polygon3009"
       inkscape:connector-curvature="0" /><path
       style="fill:#ffffff"
       d="m 289.53063,675.6168 -5.79734,6.25432 138.0763,137.98997 11.96869,0 L 289.53063,675.6168 z"
       id="polygon3013"
       inkscape:connector-curvature="0" /><path
       style="fill:#ffffff"
       d="m 303.16163,667.90798 -4.92461,6.98157 144.97492,144.97154 11.90636,0 -151.95667,-151.95311 z"
       id="polygon3015"
       inkscape:connector-curvature="0" /><path
       style="fill:#ffffff"
       d="m 315.31733,658.20442 -3.84411,7.70883 153.95144,153.94784 11.42844,0 -161.53577,-161.65667 z"
       id="polygon3017"
       inkscape:connector-curvature="0" /><path
       style="fill:#ffffff"
       d="m 328.49121,648.95799 -7.64667,3.80246 167.12531,167.10064 11.49077,0 -170.96941,-170.9031 z"
       id="polygon3019"
       inkscape:connector-curvature="0" /><path
       style="fill:#ffffff"
       d="m 337.59239,635.7221 -7.04406,4.86216 179.28101,179.27683 11.90634,0 L 337.59239,635.7221 z"
       id="polygon3021"
       inkscape:connector-curvature="0" /><path
       style="fill:#ffffff"
       d="m 344.57414,621.30182 -6.25447,5.85954 192.99512,192.69973 12.03104,0 -198.77169,-198.55927 z"
       id="polygon3023"
       inkscape:connector-curvature="0" /><path
       sodipodi:type="arc"
       style="fill:none;stroke:#000000;stroke-width:0.15039414;stroke-linecap:square;stroke-linejoin:miter;stroke-miterlimit:4;stroke-opacity:1;stroke-dasharray:none;stroke-dashoffset:10"
       id="path3786"
       sodipodi:cx="515.13007"
       sodipodi:cy="131.42075"
       sodipodi:rx="197.09906"
       sodipodi:ry="197.09906"
       d="m 712.22913,131.42075 a 197.09906,197.09906 0 1 1 -394.19812,0 197.09906,197.09906 0 1 1 394.19812,0 z"
       transform="matrix(0.66492725,0,0,0.66491178,-97.812512,494.48856)" /><path
       style="font-size:medium;font-style:normal;font-variant:normal;font-weight:normal;font-stretch:normal;text-indent:0;text-align:start;text-decoration:none;line-height:normal;letter-spacing:normal;word-spacing:normal;text-transform:none;direction:ltr;block-progression:tb;writing-mode:lr-tb;text-anchor:start;baseline-shift:baseline;color:#000000;fill:none;stroke:#000000;stroke-width:0.1;stroke-miterlimit:4;stroke-opacity:1;stroke-dasharray:none;marker:none;visibility:visible;display:inline;overflow:visible;enable-background:accumulate;font-family:Sans;-inkscape-font-specification:Sans"
       d="m 244.28125,474.0625 0,0.5 0,3.3125 0,0.5 0.5,0 c 2.58467,0 5.17373,0.0831 7.75,0.28125 l 0.5,0.0312 0.0312,-0.5 0.25,-3.3125 0.0625,-0.53125 -0.53125,-0.0312 c -2.66013,-0.133 -5.38612,-0.25 -8.0625,-0.25 l -0.5,0 z m -7.03125,0.28125 -0.5,0.0312 c -2.66797,0.20009 -5.32417,0.47363 -8,0.875 l -0.5,0.0937 0.0625,0.46875 0.46875,3.28125 0.0937,0.5 0.5,-0.0937 c 2.50848,-0.39607 5.07606,-0.64911 7.71875,-0.78125 l 0.5,-0.0312 -0.0312,-0.5 -0.25,-3.34375 z m 23.0625,0.84375 -0.0625,0.5 -0.46875,3.25 -0.0625,0.5 0.46875,0.0625 c 2.58369,0.39749 5.11445,0.87416 7.625,1.46875 l 0.46875,0.0937 0.125,-0.46875 0.71875,-3.28125 0.125,-0.46875 -0.5,-0.125 c -2.61086,-0.60249 -5.26973,-1.06859 -7.9375,-1.46875 l -0.5,-0.0625 z m -39.03125,1.4375 -0.5,0.0937 c -2.59929,0.59982 -5.26576,1.28954 -7.8125,2.09375 l -0.46875,0.125 0.15625,0.5 1,3.1875 0.15625,0.46875 0.46875,-0.15625 c 2.44221,-0.79205 4.95847,-1.44028 7.46875,-1.96875 l 0.5,-0.125 -0.125,-0.46875 -0.71875,-3.28125 -0.125,-0.46875 z m 54.8125,2.03125 -0.15625,0.46875 -0.96875,3.1875 -0.15625,0.46875 0.46875,0.15625 c 2.45248,0.79537 4.89792,1.66692 7.28125,2.59375 l 0.46875,0.1875 0.1875,-0.46875 1.25,-3.125 0.1875,-0.46875 -0.46875,-0.1875 c -2.48039,-1.00554 -5.06183,-1.85671 -7.59375,-2.65625 z m -70.25,2.625 -0.46875,0.1875 c -2.55113,0.93987 -5.04053,2.08687 -7.4375,3.21875 l -0.4375,0.21875 0.21875,0.4375 1.46875,3 0.21875,0.4375 0.4375,-0.21875 c 2.31695,-1.12535 4.69188,-2.17522 7.0625,-3.03125 l 0.5,-0.1875 -0.1875,-0.46875 L 206,481.75 z m 85.25,3.1875 -0.21875,0.4375 -1.46875,3 -0.21875,0.4375 0.46875,0.21875 c 2.31002,1.12198 4.55175,2.39292 6.8125,3.65625 l 0.4375,0.21875 0.21875,-0.40625 1.75,-2.9375 0.25,-0.4375 -0.4375,-0.25 c -2.33704,-1.33542 -4.74882,-2.58193 -7.15625,-3.71875 z m -99.78125,3.75 -0.4375,0.28125 c -2.26333,1.33135 -4.59931,2.70751 -6.8125,4.25 l -0.40625,0.28125 0.28125,0.4375 1.84375,2.71875 0.28125,0.40625 0.40625,-0.28125 c 2.11793,-1.45605 4.31844,-2.83973 6.5625,-4.09375 l 0.4375,-0.25 -0.25,-0.4375 -1.65625,-2.875 z m 113.71875,4.25 -0.28125,0.40625 -1.875,2.75 -0.28125,0.40625 L 303,496.3125 c 2.11611,1.45479 4.23244,3.03598 6.21875,4.625 l 0.40625,0.3125 0.3125,-0.375 2.0625,-2.59375 0.3125,-0.40625 -0.40625,-0.3125 c -2.07452,-1.67297 -4.26891,-3.27931 -6.46875,-4.8125 z M 177.90625,497.1875 177.5,497.5 c -2.07142,1.67046 -4.12582,3.47817 -6.0625,5.28125 l -0.375,0.34375 0.34375,0.375 2.25,2.4375 0.34375,0.375 0.375,-0.34375 c 1.84436,-1.77844 3.81772,-3.43147 5.8125,-5.09375 l 0.375,-0.3125 -0.28125,-0.375 -2.0625,-2.59375 z m 139.78125,5.25 -0.34375,0.375 -2.25,2.46875 -0.34375,0.34375 0.375,0.34375 c 1.91959,1.78716 3.77988,3.64761 5.5,5.5 l 0.34375,0.375 0.34375,-0.375 2.40625,-2.3125 0.34375,-0.34375 -0.3125,-0.34375 c -1.80369,-1.93726 -3.7502,-3.88385 -5.6875,-5.6875 z m -151.59375,5.71875 -0.34375,0.375 c -1.80311,1.93663 -3.61075,3.99114 -5.28125,6.0625 l -0.3125,0.40625 0.40625,0.3125 2.59375,2.0625 0.375,0.3125 0.3125,-0.40625 c 1.58737,-1.98415 3.31099,-3.96375 5.09375,-5.8125 l 0.34375,-0.375 -0.375,-0.34375 -2.4375,-2.25 z m 162.59375,6.125 -0.375,0.3125 -2.59375,2.0625 -0.40625,0.3125 0.34375,0.40625 c 1.64693,1.97627 3.16617,4.06562 4.625,6.1875 l 0.28125,0.4375 0.40625,-0.28125 2.71875,-1.875 0.4375,-0.28125 -0.3125,-0.40625 c -1.53323,-2.19979 -3.13949,-4.42553 -4.8125,-6.5 z m -172.75,6.375 -0.28125,0.4375 c -1.46543,2.19809 -2.94223,4.46928 -4.28125,6.8125 l -0.21875,0.4375 0.40625,0.25 2.875,1.65625 0.4375,0.25 0.25,-0.4375 c 1.25403,-2.24401 2.63767,-4.44462 4.09375,-6.5625 l 0.28125,-0.40625 -0.40625,-0.28125 -2.75,-1.875 z m 181.90625,6.875 -0.4375,0.25 -2.84375,1.65625 -0.4375,0.25 0.25,0.4375 c 1.31756,2.17392 2.52925,4.49224 3.65625,6.8125 l 0.1875,0.4375 0.46875,-0.1875 2.96875,-1.40625 0.46875,-0.21875 -0.21875,-0.46875 c -1.20017,-2.40032 -2.47705,-4.78802 -3.8125,-7.125 z m -190.125,7.0625 -0.21875,0.46875 c -1.13514,2.40376 -2.18719,4.84516 -3.1875,7.3125 l -0.1875,0.5 0.46875,0.15625 3.125,1.21875 0.46875,0.15625 0.1875,-0.4375 c 0.92507,-2.3787 1.97058,-4.77739 3.03125,-7.03125 l 0.21875,-0.4375 -0.4375,-0.21875 -3,-1.46875 z m 197.21875,7.46875 -0.46875,0.1875 -3.125,1.1875 -0.46875,0.1875 0.1875,0.46875 c 0.99006,2.37608 1.8358,4.83694 2.5625,7.28125 l 0.15625,0.46875 0.46875,-0.15625 3.1875,-0.90625 0.5,-0.15625 -0.15625,-0.5 c -0.79955,-2.53186 -1.65069,-5.11342 -2.65625,-7.59375 z m -203.15625,7.40625 -0.15625,0.46875 c -0.80251,2.60808 -1.46224,5.21143 -2.0625,7.8125 l -0.125,0.5 0.5,0.0937 3.25,0.75 0.5,0.0937 0.0937,-0.46875 c 0.59692,-2.45393 1.27083,-4.98111 2,-7.5 l 0.125,-0.46875 -0.4375,-0.15625 -3.21875,-0.96875 -0.46875,-0.15625 z m 207.96875,7.9375 -0.5,0.0937 -3.25,0.75 -0.5,0.0937 0.125,0.5 c 0.59415,2.50859 1.07091,5.10545 1.46875,7.625 l 0.0625,0.46875 0.5,-0.0625 3.25,-0.46875 0.5,-0.0625 -0.0625,-0.5 c -0.40017,-2.66771 -0.8975,-5.35796 -1.5,-7.96875 l -0.0937,-0.46875 z m -211.65625,7.75 -0.0625,0.5 c -0.33247,2.65965 -0.67428,5.32382 -0.875,8 l -0.0312,0.5 0.5,0.0312 3.3125,0.28125 0.5,0.0312 0.0312,-0.5 c 0.19816,-2.50997 0.54563,-5.11257 0.8125,-7.78125 l 0.0312,-0.46875 -0.46875,-0.0625 -3.25,-0.46875 -0.5,-0.0625 z m 214.125,8.125 -0.5,0.0312 -3.3125,0.28125 -0.5,0.0312 0.0312,0.5 c 0.19817,2.57622 0.28125,5.16539 0.28125,7.75 l 0,0.1875 0,0.5 0.5,0 3.3125,0 0.5,0 0,-0.5 0,-0.1875 c 0,-2.73427 -0.0805,-5.41757 -0.28125,-8.09375 l -0.0312,-0.5 z m -215.3125,7.96875 0,0.5 0,0.125 c 0,2.66798 0.0492,5.32675 0.25,7.9375 l 0.0312,0.5 0.5,-0.0312 3.34375,-0.25 0.5,-0.0625 -0.0625,-0.5 c -0.19804,-2.5086 -0.25,-5.07585 -0.25,-7.59375 l 0,-0.125 0,-0.5 -0.5,0 -3.3125,0 -0.5,0 z m 211.0625,8.0625 -0.0312,0.5 c -0.19883,2.58469 -0.44768,5.17907 -0.84375,7.6875 l -0.0937,0.46875 0.5,0.0937 3.25,0.53125 0.5,0.0625 0.0937,-0.5 c 0.40138,-2.67577 0.64028,-5.34036 0.90625,-8 l 0.0625,-0.5 -0.5,-0.0312 -3.34375,-0.28125 -0.5,-0.0312 z m -205.71875,7.34375 -0.46875,0.0937 -3.25,0.4375 -0.5,0.0937 0.0625,0.5 c 0.40017,2.66771 0.86625,5.32671 1.46875,7.9375 l 0.125,0.5 0.46875,-0.125 3.1875,-0.71875 0.5,-0.125 -0.125,-0.46875 c -0.52985,-2.51672 -0.97716,-5.10545 -1.375,-7.625 l -0.0937,-0.5 z m 203.40625,7.96875 -0.0937,0.46875 c -0.52675,2.50201 -1.26928,5.04218 -2,7.5 l -0.125,0.46875 0.46875,0.125 3.1875,1 0.46875,0.15625 0.15625,-0.46875 c 0.80347,-2.54428 1.46193,-5.14338 2.0625,-7.8125 l 0.125,-0.5 -0.5,-0.0937 -3.25,-0.75 -0.5,-0.0937 z m -200.09375,7.125 -0.46875,0.15625 -3.1875,1 -0.5,0.15625 0.15625,0.46875 c 0.79956,2.53186 1.68194,5.14467 2.6875,7.625 l 0.1875,0.46875 0.4375,-0.1875 3.125,-1.1875 0.5,-0.1875 -0.21875,-0.46875 c -0.99158,-2.44583 -1.8358,-4.89944 -2.5625,-7.34375 z m 195.625,7.65625 -0.1875,0.4375 c -0.92506,2.37869 -1.99963,4.77686 -3.125,7.09375 l -0.21875,0.4375 0.46875,0.21875 2.96875,1.46875 0.46875,0.21875 0.21875,-0.4375 c 1.20515,-2.41024 2.27997,-4.90099 3.28125,-7.4375 l 0.15625,-0.46875 -0.46875,-0.15625 -3.125,-1.21875 z m -190,6.8125 -0.4375,0.21875 -3,1.46875 -0.4375,0.21875 0.1875,0.4375 c 1.13684,2.40738 2.41454,4.81926 3.75,7.15625 l 0.25,0.4375 0.4375,-0.25 2.9375,-1.75 0.4375,-0.25 -0.28125,-0.4375 c -1.31756,-2.17392 -2.498,-4.49224 -3.625,-6.8125 z M 334.5,633.375 l -0.25,0.4375 c -1.25403,2.24401 -2.63767,4.44462 -4.09375,6.5625 l -0.3125,0.40625 0.4375,0.28125 2.71875,1.875 0.40625,0.28125 0.28125,-0.40625 c 1.53864,-2.20756 3.00899,-4.56712 4.28125,-6.84375 l 0.25,-0.4375 -0.4375,-0.21875 -2.84375,-1.6875 z m -175.6875,6.3125 -0.4375,0.28125 -2.71875,1.875 -0.40625,0.28125 0.28125,0.40625 c 1.53322,2.19979 3.13949,4.39428 4.8125,6.46875 l 0.3125,0.40625 0.40625,-0.3125 2.5,-2.0625 0.40625,-0.3125 -0.3125,-0.40625 c -1.58482,-1.98099 -3.10367,-4.09686 -4.5625,-6.21875 z m 166.9375,6.5 -0.3125,0.40625 c -1.58735,1.98416 -3.31052,3.95944 -5.03125,5.8125 l -0.34375,0.375 0.375,0.34375 2.46875,2.25 0.34375,0.34375 0.34375,-0.375 c 1.87803,-1.94507 3.6147,-3.99064 5.21875,-6.0625 l 0.3125,-0.40625 -0.375,-0.3125 -2.59375,-2.0625 z m -157.28125,5.65625 -0.375,0.34375 -2.4375,2.25 -0.375,0.34375 0.34375,0.375 c 1.8037,1.93726 3.71895,3.88385 5.65625,5.6875 l 0.375,0.3125 0.34375,-0.34375 2.3125,-2.40625 0.375,-0.34375 -0.375,-0.34375 c -1.91959,-1.78716 -3.77988,-3.64761 -5.5,-5.5 z M 315.375,657.5625 315,657.90625 c -1.92404,1.72496 -3.92205,3.44394 -5.90625,5.03125 l -0.375,0.3125 0.3125,0.375 2.0625,2.59375 0.28125,0.40625 0.40625,-0.3125 c 2.14194,-1.67335 4.19295,-3.48661 6.125,-5.21875 l 0.40625,-0.34375 -0.34375,-0.34375 -2.28125,-2.46875 z m -135.71875,4.84375 -0.3125,0.40625 -2.0625,2.59375 -0.28125,0.375 0.375,0.3125 c 2.07453,1.67297 4.26891,3.27931 6.46875,4.8125 l 0.40625,0.3125 0.3125,-0.4375 1.84375,-2.71875 0.28125,-0.40625 -0.40625,-0.28125 c -2.1161,-1.45479 -4.23244,-3.06723 -6.21875,-4.65625 z m 123.625,4.8125 L 302.875,667.5 c -2.11794,1.45604 -4.28719,2.83975 -6.53125,4.09375 l -0.46875,0.25 0.28125,0.4375 1.65625,2.875 0.25,0.40625 0.4375,-0.25 c 2.33705,-1.33542 4.6032,-2.71022 6.8125,-4.25 l 0.40625,-0.3125 -0.28125,-0.40625 -1.875,-2.71875 z m -110.875,4 -0.25,0.4375 L 190.5,674.5 l -0.25,0.4375 0.40625,0.25 c 2.34285,1.40568 4.74882,2.67568 7.15625,3.8125 l 0.46875,0.21875 0.21875,-0.46875 1.375,-2.96875 0.21875,-0.46875 -0.4375,-0.21875 c -2.31001,-1.12198 -4.58299,-2.36167 -6.84375,-3.625 z m 97.5,3.75 -0.46875,0.21875 c -2.31694,1.12535 -4.68375,2.1687 -7.0625,3.09375 l -0.46875,0.1875 0.1875,0.46875 1.1875,3.125 0.1875,0.46875 0.46875,-0.1875 c 2.53656,-1.00126 4.99595,-2.07612 7.40625,-3.28125 l 0.4375,-0.21875 -0.21875,-0.4375 -1.4375,-3 z m -83.65625,3 -0.1875,0.46875 -1.1875,3.125 -0.15625,0.46875 0.4375,0.1875 c 2.48039,1.00554 5.09307,1.85671 7.625,2.65625 l 0.46875,0.15625 0.15625,-0.5 0.9375,-3.1875 0.125,-0.46875 L 214,680.71875 c -2.45248,-0.79537 -4.89793,-1.63567 -7.28125,-2.5625 z m 69.3125,2.75 -0.46875,0.15625 c -2.44994,0.72835 -4.98135,1.37224 -7.5,1.96875 l -0.46875,0.125 0.0937,0.46875 0.75,3.28125 0.0937,0.46875 0.5,-0.0937 c 2.60903,-0.60207 5.21929,-1.36235 7.8125,-2.09375 l 0.5,-0.125 -0.15625,-0.5 -1,-3.1875 -0.15625,-0.46875 z m -54.5625,1.9375 -0.125,0.5 -0.71875,3.25 -0.125,0.5 0.5,0.125 c 2.59487,0.53227 5.26167,1.06738 7.9375,1.46875 l 0.5,0.0625 0.0937,-0.5 0.4375,-3.25 0.0937,-0.5 -0.5,-0.0625 c -2.5837,-0.39748 -5.08318,-0.87416 -7.59375,-1.46875 l -0.5,-0.125 z m 39.4375,1.5 -0.5,0.0937 c -2.50849,0.39607 -5.10275,0.64492 -7.6875,0.84375 l -0.5,0.0312 0.0312,0.5 0.28125,3.34375 0.0312,0.5 0.5,-0.0625 c 2.66797,-0.2001 5.34962,-0.46741 7.96875,-0.9375 l 0.46875,-0.0625 -0.0625,-0.5 -0.46875,-3.25 -0.0625,-0.5 z M 236.28125,685 l -0.0625,0.5 -0.25,3.3125 -0.0312,0.5 0.5,0.0312 c 2.66859,0.20014 5.38612,0.34375 8.0625,0.34375 l 0.5,0 0,-0.5 0,-3.375 0,-0.5 -0.5,0 c -2.58466,0 -5.14247,-0.0831 -7.71875,-0.28125 l -0.5,-0.0312 z"
       id="path3790"
       inkscape:connector-curvature="0"
       sodipodi:nodetypes="ccccsccccccscccccccccccccccccccccccccccccccccccccccccccccccccccccccccccccccccccccccccccccccsccccccccccccccccccccccccccccccccccccscccccccccccccccccccccccccccccccccccccccccccccccccccccccccccccccccccsccccccccccccccccccccccccccccccccccccccccccccccccccccccccscccccccccccccccccsccccccscccccsccccccsccccccccccccccccccccccccccccccccccccccccccccccccccccccccccccccccccccsccccccccccccccccccccccccccccccccccccccccccccccccccccccccccccccccccccccccccccccccccccccccccccccccccccccccccccccccccccccccccccccccccsccccccccccccccccccccccccccccccccccccccccccccccccccccccccccccccccsccccsccc" /><rect
       style="fill:#ffffff;stroke:none"
       id="rect3792"
       width="343.76102"
       height="248.55656"
       x="-361.95868"
       y="741.42224"
       transform="matrix(0.76456666,-0.64454466,0.67051426,0.74189664,0,0)" /></g><g
     id="Layer_2"
     class="st30"
     style="display:none"
     transform="translate(-55.09375,-382.625)" /></svg>