<?xml version="1.0" encoding="UTF-8" standalone="no"?>
<!-- Generator: Adobe Illustrator 19.0.1, SVG Export Plug-In . SVG Version: 6.00 Build 0)  -->

<svg
   xmlns:dc="http://purl.org/dc/elements/1.1/"
   xmlns:cc="http://creativecommons.org/ns#"
   xmlns:rdf="http://www.w3.org/1999/02/22-rdf-syntax-ns#"
   xmlns:svg="http://www.w3.org/2000/svg"
   xmlns="http://www.w3.org/2000/svg"
   xmlns:sodipodi="http://sodipodi.sourceforge.net/DTD/sodipodi-0.dtd"
   xmlns:inkscape="http://www.inkscape.org/namespaces/inkscape"
   version="1.1"
   x="0px"
   y="0px"
   viewBox="0 0 1056.8125 534.75"
   xml:space="preserve"
   id="svg2985"
   inkscape:version="0.48.4 r9939"
   width="100%"
   height="100%"
   sodipodi:docname="rays.svg"><metadata
     id="metadata3046"><rdf:RDF><cc:Work
         rdf:about=""><dc:format>image/svg+xml</dc:format><dc:type
           rdf:resource="http://purl.org/dc/dcmitype/StillImage" /><dc:title></dc:title></cc:Work></rdf:RDF></metadata><defs
     id="defs3044" /><sodipodi:namedview
     pagecolor="#ffffff"
     bordercolor="#666666"
     borderopacity="1"
     objecttolerance="10"
     gridtolerance="10"
     guidetolerance="10"
     inkscape:pageopacity="0"
     inkscape:pageshadow="2"
     inkscape:window-width="2460"
     inkscape:window-height="1310"
     id="namedview3042"
     showgrid="false"
     showguides="false"
     inkscape:snap-global="false"
     fit-margin-top="0"
     fit-margin-left="0"
     fit-margin-right="0"
     fit-margin-bottom="0"
     inkscape:zoom="8.9802561"
     inkscape:cx="1092.2754"
     inkscape:cy="4.7870902"
     inkscape:window-x="2610"
     inkscape:window-y="80"
     inkscape:window-maximized="0"
     inkscape:current-layer="g3841"><inkscape:grid
       type="xygrid"
       id="grid3868"
       empspacing="5"
       visible="true"
       enabled="true"
       snapvisiblegridlinesonly="true"
       originx="-55.09375px"
       originy="-787.375px" /></sodipodi:namedview><style
     type="text/css"
     id="style2987">
	.st0{fill:#999999;}
	.st1{fill:#CCCCCC;}
	.st2{fill:#5D5E5E;}
	.st3{fill:#333333;}
	.st4{fill:#EE1D3A;}
	.st5{fill:#FFFFFF;}
	.st6{fill:#666766;}
	.st7{fill:none;}
	.st8{fill:#FFFFFF;stroke:#000000;stroke-miterlimit:10;}
	.st9{fill:#33C6F4;}
	.st10{fill:#0099CC;}
	.st11{fill:#47C8F5;}
	.st12{fill:#F7903E;}
	.st13{fill:#B14C26;}
	.st14{fill:#9DCDA3;}
	.st15{fill:#739560;}
	.st16{fill:#A2C5C9;}
	.st17{fill:#62778A;}
	.st18{fill:#D9C480;}
	.st19{fill:#98754B;}
	.st20{fill:#AC5E47;}
	.st21{fill:#7C2A38;}
	.st22{fill:#58612B;}
	.st23{fill:#273E20;}
	.st24{fill:#489A8C;}
	.st25{fill:#237784;}
	.st26{fill:#D5B2AC;}
	.st27{fill:#936776;}
	.st28{fill:#F9F9FA;}
	.st29{fill:none;stroke:#FFFFFF;stroke-width:4;stroke-miterlimit:10;}
	.st30{display:none;}
	.st31{display:inline;}
</style><g
     id="Layer_1"
     transform="translate(-55.09375,-117.875)" /><g
     id="g3841"
     transform="translate(-110.38434,-183.17342)"><path
       style="fill:#0099cc"
       d="M 470.03125 134.625 L 463.53125 223.8125 L 503.625 263.9375 C 508.20045 265.33003 653.55861 406.98089 785.5 534.75 L 998.125 534.75 C 859.59502 390.46051 618.20935 155.2021 616.21875 149.03125 L 601.90625 134.625 L 593.8125 147.21875 L 587.8125 160.4375 L 562.125 134.625 L 571.625 160.8125 L 545.53125 134.625 L 545.3125 167.125 L 512.90625 134.625 L 512.8125 177.3125 L 470.03125 134.625 z "
       transform="translate(110.38434,183.17342)"
       id="path2995" /><g
       id="g2997"><path
         class="st5"
         d="m 574.4,408.1 v -90.2 h 5.9 v 84.8 h 28.4 v 5.4 h -34.3 z"
         id="path2999"
         inkscape:connector-curvature="0"
         style="fill:#ffffff" /><path
         class="st5"
         d="m 623.2,386.3 c 0,9.7 3.6,17.1 13.5,17.1 9.9,0 13.5,-7.5 13.5,-17.1 v -68.4 h 5.5 V 386 c 0,12.9 -5.4,22.8 -19.2,22.8 -13.8,0 -19.3,-9.9 -19.3,-22.8 v -68.2 h 5.9 v 68.5 z"
         id="path3001"
         inkscape:connector-curvature="0"
         style="fill:#ffffff" /><path
         class="st5"
         d="m 688.9,366 -18.3,42 h -5.8 l 20.4,-46.8 -18.9,-43.4 h 6.2 l 17,38.8 17.1,-38.8 h 5.7 l -18.9,43.4 20.2,46.8 h -6.3 l -18.4,-42 z"
         id="path3003"
         inkscape:connector-curvature="0"
         style="fill:#ffffff" /></g><path
       style="fill:#33c6f4"
       d="M 575.3125 326.4375 L 566.71875 335.8125 L 765.75 534.75 L 783.75 534.75 L 575.3125 326.4375 z "
       transform="translate(110.38434,183.17342)"
       id="polygon3007" /><path
       style="fill:#33c6f4"
       d="M 686.125 215.4375 L 679.03125 223.21875 L 990.34375 534.75 L 1005.4688 534.75 L 686.125 215.4375 z "
       transform="translate(110.38434,183.17342)"
       id="polygon3009" /><path
       style="fill:#33c6f4"
       d="M 597.03125 317.8125 L 588.3125 327.21875 L 795.96875 534.75 L 813.96875 534.75 L 597.03125 317.8125 z "
       transform="translate(110.38434,183.17342)"
       id="polygon3013" /><path
       style="fill:#33c6f4"
       d="M 617.53125 306.21875 L 610.125 316.71875 L 828.15625 534.75 L 846.0625 534.75 L 617.53125 306.21875 z "
       transform="translate(110.38434,183.17342)"
       id="polygon3015" /><path
       style="fill:#33c6f4"
       d="M 635.8125 291.625 L 630.03125 303.21875 L 861.5625 534.75 L 878.75 534.75 L 635.8125 291.625 z "
       transform="translate(110.38434,183.17342)"
       id="polygon3017" /><path
       style="fill:#33c6f4"
       d="M 655.625 277.71875 L 644.125 283.4375 L 895.46875 534.75 L 912.75 534.75 L 655.625 277.71875 z "
       transform="translate(110.38434,183.17342)"
       id="polygon3019" /><path
       style="fill:#33c6f4"
       d="M 669.3125 257.8125 L 658.71875 265.125 L 928.34375 534.75 L 946.25 534.75 L 669.3125 257.8125 z "
       transform="translate(110.38434,183.17342)"
       id="polygon3021" /><path
       style="fill:#33c6f4"
       d="M 679.8125 236.125 L 670.40625 244.9375 L 960.65625 534.75 L 978.75 534.75 L 679.8125 236.125 z "
       transform="translate(110.38434,183.17342)"
       id="polygon3023" /><g
       id="g3025"><path
         class="st28"
         d="m 639.7,521.4 c -4,0 -8.1,-0.2 -12.1,-0.5 l 0.4,-5 c 3.9,0.3 7.8,0.4 11.7,0.4 l 0,5.1 z m 12.1,-0.4 -0.4,-5 c 3.9,-0.3 7.8,-0.7 11.6,-1.3 l 0.7,4.9 c -3.9,0.7 -7.9,1.1 -11.9,1.4 z m -36.1,-1.4 c -4,-0.6 -8,-1.4 -11.9,-2.2 l 1.1,-4.9 c 3.8,0.9 7.6,1.6 11.5,2.2 l -0.7,4.9 z m 60,-2.1 -1.1,-4.9 c 3.8,-0.9 7.6,-1.9 11.3,-3 l 1.5,4.8 c -3.9,1.1 -7.8,2.2 -11.7,3.1 z m -83.5,-3.3 c -3.8,-1.2 -7.7,-2.5 -11.4,-4 l 1.8,-4.7 c 3.6,1.4 7.3,2.7 11,3.9 l -1.4,4.8 z m 106.5,-3.8 -1.8,-4.7 c 3.6,-1.4 7.2,-3 10.7,-4.7 l 2.2,4.5 c -3.6,1.8 -7.3,3.4 -11.1,4.9 z m -128.9,-5 c -3.6,-1.7 -7.2,-3.6 -10.7,-5.7 l 2.5,-4.3 c 3.4,1.9 6.8,3.8 10.3,5.5 l -2.1,4.5 z m 150.7,-5.5 -2.5,-4.3 c 3.4,-1.9 6.7,-4 9.9,-6.2 l 2.8,4.1 c -3.3,2.3 -6.7,4.4 -10.2,6.4 z m -171.6,-6.6 c -3.3,-2.3 -6.6,-4.7 -9.7,-7.2 l 3.1,-3.9 c 3,2.4 6.2,4.8 9.4,7 l -2.8,4.1 z m 191.5,-6.9 -3.1,-3.9 c 3,-2.4 6,-5 8.9,-7.6 l 3.4,3.7 c -2.9,2.6 -6,5.3 -9.2,7.8 z m -210.3,-8.2 c -2.9,-2.7 -5.8,-5.6 -8.5,-8.5 l 3.7,-3.4 c 2.6,2.8 5.4,5.6 8.3,8.3 l -3.5,3.6 z m 228,-8.2 -3.7,-3.4 c 2.6,-2.8 5.2,-5.8 7.6,-8.8 l 3.9,3.1 c -2.4,3.1 -5,6.2 -7.8,9.1 z m -244.4,-9.5 c -2.5,-3.1 -4.9,-6.4 -7.2,-9.7 l 4.1,-2.8 c 2.2,3.2 4.5,6.4 6.9,9.4 l -3.8,3.1 z m 259.5,-9.3 -4.1,-2.8 c 2.2,-3.2 4.3,-6.5 6.2,-9.9 l 4.3,2.5 c -1.9,3.4 -4.1,6.9 -6.4,10.2 z M 500.1,440.6 c -2,-3.5 -3.9,-7.1 -5.6,-10.7 l 4.5,-2.2 c 1.7,3.5 3.5,7 5.5,10.3 l -4.4,2.6 z m 285.2,-10.3 -4.5,-2.2 c 1.7,-3.5 3.3,-7.1 4.7,-10.7 l 4.7,1.8 c -1.5,3.8 -3.1,7.5 -4.9,11.1 z M 489.6,418.8 c -1.5,-3.7 -2.8,-7.6 -4,-11.4 l 4.8,-1.5 c 1.1,3.7 2.4,7.4 3.9,11.1 l -4.7,1.8 z m 304.6,-10.9 -4.8,-1.5 c 1.1,-3.7 2.2,-7.5 3,-11.3 l 4.9,1.1 c -0.9,4 -1.9,7.9 -3.1,11.7 z M 482.6,395.7 c -0.9,-3.9 -1.6,-7.9 -2.2,-11.9 l 4.9,-0.7 c 0.6,3.8 1.3,7.7 2.1,11.5 l -4.8,1.1 z m 317,-11.3 -4.9,-0.8 c 0.6,-3.8 1,-7.7 1.3,-11.6 l 5,0.4 c -0.4,4 -0.8,8 -1.4,12 z M 479,371.9 C 478.7,368 478.6,364 478.6,360 v -0.2 h 5 v 0.2 c 0,3.8 0.1,7.7 0.4,11.5 l -5,0.4 z m 322.4,-11.6 h -5 l 0,-0.3 c 0,-3.9 -0.1,-7.8 -0.4,-11.7 l 5,-0.4 c 0.3,4 0.4,8 0.4,12.1 l 0,0.3 z M 484,348.1 l -5,-0.4 c 0.3,-4 0.8,-8 1.3,-12 l 4.9,0.7 c -0.4,4 -0.9,7.9 -1.2,11.7 z m 310.7,-11.4 c -0.6,-3.8 -1.3,-7.7 -2.2,-11.5 l 4.9,-1.1 c 0.9,3.9 1.6,7.9 2.2,11.9 l -4.9,0.7 z M 487.5,325 l -4.9,-1.1 c 0.9,-3.9 1.9,-7.8 3.1,-11.7 l 4.8,1.5 c -1.1,3.8 -2.1,7.6 -3,11.3 z m 302,-11.1 c -1.1,-3.7 -2.4,-7.4 -3.9,-11 l 4.7,-1.8 c 1.5,3.7 2.8,7.6 4,11.4 l -4.8,1.4 z m -295.1,-11.2 -4.7,-1.8 c 1.5,-3.7 3.1,-7.4 4.8,-11 l 4.5,2.2 c -1.6,3.4 -3.2,7 -4.6,10.6 z M 781,292.1 c -1.7,-3.5 -3.5,-7 -5.5,-10.3 l 4.3,-2.5 c 2,3.5 3.9,7.1 5.7,10.7 l -4.5,2.1 z m -276.4,-10.4 -4.3,-2.5 c 2,-3.5 4.2,-6.9 6.4,-10.2 l 4.1,2.8 c -2.2,3.2 -4.3,6.5 -6.2,9.9 z m 264.7,-9.8 c -2.2,-3.2 -4.5,-6.4 -7,-9.4 l 3.9,-3.1 c 2.5,3.1 4.9,6.4 7.2,9.7 l -4.1,2.8 z m -251.5,-9.5 -3.9,-3.1 c 2.5,-3.1 5.2,-6.2 7.9,-9.1 l 3.7,3.4 c -2.7,2.8 -5.3,5.8 -7.7,8.8 z m 236.9,-8.8 c -2.6,-2.8 -5.4,-5.6 -8.3,-8.3 l 3.4,-3.7 c 2.9,2.7 5.8,5.6 8.5,8.5 l -3.6,3.5 z m -221,-8.3 -3.4,-3.7 c 2.9,-2.7 6,-5.4 9.1,-7.9 l 3.1,3.9 c -3,2.5 -6,5 -8.8,7.7 z m 203.8,-7.6 c -3,-2.4 -6.2,-4.8 -9.4,-7 l 2.8,-4.1 c 3.3,2.3 6.6,4.7 9.7,7.2 l -3.1,3.9 z m -185.5,-7 -2.8,-4.1 c 3.3,-2.3 6.8,-4.4 10.2,-6.4 l 2.5,4.3 c -3.4,1.9 -6.7,4 -9.9,6.2 z m 166.2,-6.2 c -3.4,-1.9 -6.8,-3.8 -10.3,-5.5 l 2.2,-4.5 c 3.6,1.7 7.2,3.6 10.7,5.6 l -2.6,4.4 z m -146,-5.5 -2.2,-4.5 c 3.6,-1.7 7.3,-3.4 11.1,-4.8 l 1.8,4.7 c -3.6,1.3 -7.2,2.9 -10.7,4.6 z m 125,-4.6 c -3.6,-1.4 -7.3,-2.7 -11,-3.9 l 1.5,-4.8 c 3.8,1.2 7.7,2.5 11.4,4 l -1.9,4.7 z m -103.2,-3.9 -1.5,-4.8 c 3.8,-1.2 7.8,-2.2 11.7,-3.1 l 1.1,4.9 c -3.8,0.8 -7.6,1.8 -11.3,3 z m 80.9,-3 c -3.8,-0.9 -7.6,-1.6 -11.5,-2.2 l 0.7,-4.9 c 4,0.6 8,1.3 11.9,2.2 l -1.1,4.9 z m -58.1,-2.2 -0.7,-4.9 c 4,-0.6 8,-1 12,-1.3 l 0.4,5 c -4,0.2 -7.9,0.6 -11.7,1.2 z m 35,-1.3 c -3.9,-0.3 -7.8,-0.4 -11.7,-0.4 l 0,-5 c 4,0 8.1,0.2 12.1,0.4 l -0.4,5 z"
         id="path3027"
         inkscape:connector-curvature="0"
         style="fill:#f9f9fa" /></g><g
       id="g3029"><g
         id="g3031"><path
           class="st9"
           d="m 780.5,483.1 c 3.2,0 3.2,-5 0,-5 -3.2,0 -3.2,5 0,5 l 0,0 z"
           id="path3033"
           inkscape:connector-curvature="0"
           style="fill:#33c6f4" /></g></g><circle
       class="st29"
       cx="640"
       cy="360"
       r="172.60001"
       id="circle3035"
       sodipodi:cx="640"
       sodipodi:cy="360"
       sodipodi:rx="172.60001"
       sodipodi:ry="172.60001"
       style="fill:none;stroke:#ffffff;stroke-width:4;stroke-miterlimit:10"
       d="m 812.60001,360 c 0,95.32435 -77.27566,172.60001 -172.60001,172.60001 -95.32435,0 -172.60001,-77.27566 -172.60001,-172.60001 0,-95.32435 77.27566,-172.60001 172.60001,-172.60001 95.32435,0 172.60001,77.27566 172.60001,172.60001 z" /><rect
       style="fill:#ffffff;fill-opacity:1;stroke:#00ff00;stroke-width:0.25;stroke-linecap:butt;stroke-linejoin:miter;stroke-miterlimit:4;stroke-opacity:1;stroke-dasharray:none"
       id="rect4023"
       width="1056.6514"
       height="7.0154057"
       x="0"
       y="527.62323"
       transform="translate(110.38434,183.17342)" /></g><g
     id="Layer_2"
     class="st30"
     style="display:none"
     transform="translate(-55.09375,-117.875)" /></svg>